<?xml version="1.0" encoding="iso-8859-1"?>
<!-- Generator: Adobe Illustrator 19.0.0, SVG Export Plug-In . SVG Version: 6.00 Build 0)  -->
<svg version="1.1" id="Capa_1" xmlns="http://www.w3.org/2000/svg" xmlns:xlink="http://www.w3.org/1999/xlink" x="0px" y="0px"
	 viewBox="0 0 512 512" style="enable-background:new 0 0 512 512;" xml:space="preserve">
<path style="fill:#E1EFFB;" d="M464.883,504.613H47.117c-15.555,0-28.166-12.61-28.166-28.166V201.59
	c0-15.555,12.61-28.166,28.166-28.166h417.765c15.555,0,28.166,12.61,28.166,28.166v274.858
	C493.048,492.003,480.438,504.613,464.883,504.613z"/>
<g>
	<path style="fill:#CCDFED;" d="M464.883,471.785H47.117c-15.555,0-28.166-12.61-28.166-28.166v32.828
		c0,15.555,12.61,28.166,28.166,28.166h417.765c15.555,0,28.166-12.61,28.166-28.166V443.62
		C493.048,459.175,480.438,471.785,464.883,471.785z"/>
	<path style="fill:#CCDFED;" d="M464.883,173.424H413.08c15.555,0,28.166,12.61,28.166,28.166v274.858
		c0,15.555-12.61,28.166-28.166,28.166h51.803c15.555,0,28.166-12.61,28.166-28.166V201.59
		C493.048,186.035,480.438,173.424,464.883,173.424z"/>
	<path style="fill:#CCDFED;" d="M256,303.071L27.898,497.029c5.033,4.702,11.788,7.585,19.219,7.585h417.765
		c7.431,0,14.186-2.883,19.219-7.585L256,303.071z"/>
</g>
<g>
	<path style="fill:#B2CAD8;" d="M454.414,471.785L454.414,471.785l-13.169-11.198l0,0c0,6.184-5.013,11.198-11.198,11.198H57.586
		l-29.687,25.243l0.001,0.001c0.303,0.283,0.613,0.559,0.929,0.829c0.017,0.014,0.033,0.029,0.05,0.044
		c0.303,0.258,0.612,0.509,0.926,0.754c0.032,0.025,0.064,0.051,0.096,0.076c0.301,0.233,0.608,0.46,0.919,0.681
		c0.049,0.035,0.098,0.07,0.147,0.105c0.298,0.209,0.601,0.412,0.908,0.61c0.066,0.043,0.133,0.086,0.2,0.128
		c0.294,0.186,0.592,0.367,0.894,0.543c0.084,0.049,0.169,0.098,0.254,0.146c0.29,0.165,0.583,0.325,0.879,0.48
		c0.101,0.053,0.203,0.105,0.305,0.156c0.284,0.144,0.571,0.284,0.861,0.419c0.12,0.056,0.241,0.11,0.362,0.164
		c0.278,0.124,0.557,0.245,0.839,0.361c0.138,0.057,0.278,0.11,0.418,0.165c0.27,0.105,0.54,0.209,0.814,0.306
		c0.159,0.057,0.321,0.109,0.481,0.163c0.26,0.087,0.52,0.173,0.783,0.253c0.18,0.054,0.362,0.103,0.543,0.154
		c0.25,0.07,0.499,0.141,0.751,0.204c0.202,0.051,0.406,0.095,0.609,0.141c0.237,0.054,0.473,0.109,0.712,0.157
		c0.226,0.045,0.455,0.082,0.683,0.122c0.222,0.039,0.443,0.08,0.667,0.114c0.255,0.038,0.513,0.067,0.77,0.098
		c0.201,0.024,0.401,0.053,0.604,0.073c0.307,0.031,0.616,0.05,0.926,0.07c0.157,0.01,0.312,0.026,0.469,0.034
		c0.47,0.023,0.943,0.036,1.419,0.036h365.967c-0.002,0-0.003,0-0.005,0h51.803c0.476,0,0.948-0.013,1.418-0.036
		c0.164-0.008,0.326-0.025,0.489-0.036c0.303-0.02,0.606-0.039,0.906-0.069c0.186-0.019,0.371-0.044,0.556-0.068
		c0.017-0.002,0.033-0.004,0.05-0.006h0.001c0.003,0,0.007-0.001,0.01-0.001c0.253-0.031,0.507-0.059,0.757-0.096
		c0.138-0.021,0.274-0.046,0.411-0.07c0.086-0.015,0.172-0.029,0.257-0.044h0.001c0.002,0,0.004-0.001,0.007-0.001
		c0.225-0.039,0.451-0.076,0.674-0.12c0.242-0.048,0.48-0.104,0.72-0.159c0.201-0.046,0.403-0.089,0.602-0.139
		c0.132-0.033,0.261-0.07,0.392-0.106c0.12-0.033,0.241-0.064,0.361-0.098c0.022-0.006,0.043-0.012,0.064-0.018
		c0.159-0.044,0.319-0.088,0.477-0.135c0.264-0.08,0.526-0.167,0.787-0.254c0.16-0.053,0.32-0.106,0.479-0.162
		c0.274-0.097,0.545-0.201,0.814-0.306c0.14-0.054,0.28-0.108,0.418-0.165c0.283-0.116,0.562-0.237,0.84-0.362
		c0.12-0.054,0.241-0.107,0.36-0.163c0.291-0.135,0.578-0.276,0.863-0.42c0.101-0.051,0.202-0.103,0.303-0.155
		c0.296-0.155,0.59-0.315,0.88-0.48c0.084-0.048,0.168-0.096,0.252-0.145c0.113-0.066,0.224-0.137,0.336-0.204
		c0.187-0.112,0.375-0.223,0.558-0.339c0.067-0.042,0.133-0.085,0.2-0.128c0.306-0.198,0.61-0.401,0.908-0.61
		c0.017-0.012,0.034-0.024,0.05-0.036c0.032-0.023,0.064-0.045,0.096-0.068c0.311-0.222,0.619-0.448,0.921-0.682
		c0.032-0.025,0.063-0.05,0.095-0.075c0.067-0.052,0.132-0.108,0.198-0.161c0.245-0.195,0.49-0.39,0.729-0.593
		c0.01-0.008,0.019-0.017,0.029-0.025c0.007-0.006,0.013-0.012,0.02-0.017c0.316-0.27,0.627-0.547,0.931-0.83l0.001-0.001
		L454.414,471.785z"/>
	<path style="fill:#B2CAD8;" d="M271.454,369.357L484.732,181.61c-5.092-5.059-12.105-8.186-19.849-8.186H47.117
		c-7.744,0-14.757,3.127-19.849,8.186l213.277,187.746C249.381,377.134,262.619,377.134,271.454,369.357z"/>
</g>
<path style="fill:#FF6991;" d="M240.546,369.357c8.835,7.777,22.074,7.777,30.909,0l161.974-142.585V24.364
	c0-9.377-7.601-16.978-16.978-16.978H95.549c-9.376,0-16.978,7.601-16.978,16.978v202.408L240.546,369.357z"/>
<path style="fill:#FF507E;" d="M416.451,7.386h-50.176c9.376,0,16.978,7.601,16.978,16.978v202.408l-152.34,134.104l9.634,8.48
	c8.835,7.777,22.074,7.777,30.909,0L433.43,226.771V24.364C433.428,14.987,425.827,7.386,416.451,7.386z"/>
<path style="fill:#FFFFFF;" d="M281.205,43.477c-10.237,0-19.35,4.809-25.205,12.291c-5.855-7.482-14.968-12.291-25.205-12.291
	c-17.666,0-31.988,14.321-31.988,31.988c0,40.19,57.193,62.569,57.193,62.569s57.193-22.38,57.193-62.569
	C313.193,57.798,298.871,43.477,281.205,43.477z"/>
<path style="fill:#E1EFFB;" d="M281.205,43.477c-10.237,0-19.35,4.809-25.205,12.291v82.266
	c0.003-0.001,57.193-22.381,57.193-62.569C313.193,57.798,298.871,43.477,281.205,43.477z"/>
<path d="M146.777,193.252h27.372c4.079,0,7.386-3.307,7.386-7.386c0-4.08-3.307-7.386-7.386-7.386h-27.372
	c-4.079,0-7.386,3.307-7.386,7.386C139.39,189.946,142.697,193.252,146.777,193.252z"/>
<path d="M201.13,185.866c0,4.08,3.307,7.386,7.386,7.386h156.708c4.08,0,7.386-3.307,7.386-7.386c0-4.08-3.307-7.386-7.386-7.386
	H208.516C204.437,178.48,201.13,181.786,201.13,185.866z"/>
<path d="M310.87,240.63c0-4.08-3.307-7.386-7.386-7.386H146.777c-4.079,0-7.386,3.307-7.386,7.386c0,4.08,3.307,7.386,7.386,7.386
	h156.707C307.563,248.016,310.87,244.71,310.87,240.63z"/>
<path d="M365.224,233.244h-27.373c-4.08,0-7.386,3.307-7.386,7.386c0,4.08,3.307,7.386,7.386,7.386h27.373
	c4.08,0,7.386-3.307,7.386-7.386C372.61,236.55,369.304,233.244,365.224,233.244z"/>
<path d="M490.259,176.724c-0.105-0.119-0.207-0.24-0.32-0.353c-5.801-5.764-13.245-9.283-21.267-10.128
	c-0.059-0.006-0.117-0.016-0.176-0.022c-0.49-0.049-0.982-0.083-1.476-0.113c-0.111-0.007-0.22-0.019-0.331-0.024
	c-0.599-0.03-1.201-0.046-1.806-0.046h-24.067V24.364C440.815,10.93,429.885,0,416.451,0H95.549
	C82.115,0,71.185,10.93,71.185,24.364v141.674H47.117c-0.604,0-1.206,0.016-1.805,0.046c-0.112,0.006-0.222,0.018-0.334,0.024
	c-0.493,0.029-0.984,0.063-1.473,0.112c-0.06,0.006-0.12,0.016-0.18,0.022c-8.02,0.846-15.462,4.364-21.263,10.128
	c-0.112,0.111-0.212,0.231-0.316,0.348c-6.291,6.417-10.181,15.196-10.181,24.872v274.857c0,10.087,4.23,19.199,11,25.677
	c0.096,0.101,0.188,0.206,0.29,0.302c1.806,1.687,3.766,3.159,5.84,4.42c0.001,0,0.001,0.001,0.002,0.001
	c0.479,0.291,0.964,0.57,1.455,0.837c0.028,0.015,0.056,0.03,0.084,0.045c0.462,0.25,0.93,0.49,1.402,0.719
	c0.062,0.03,0.125,0.06,0.187,0.09c0.438,0.209,0.88,0.41,1.327,0.601c0.1,0.043,0.2,0.085,0.3,0.126
	c0.411,0.171,0.826,0.335,1.243,0.491c0.137,0.051,0.274,0.102,0.412,0.151c0.384,0.138,0.77,0.268,1.159,0.393
	c0.172,0.055,0.344,0.11,0.517,0.163c0.359,0.109,0.721,0.211,1.084,0.309c0.202,0.054,0.404,0.109,0.607,0.16
	c0.341,0.085,0.684,0.163,1.028,0.238c0.225,0.049,0.449,0.1,0.675,0.145c0.331,0.066,0.665,0.123,0.998,0.179
	c0.239,0.04,0.476,0.083,0.717,0.119c0.337,0.05,0.676,0.089,1.015,0.129c0.237,0.028,0.473,0.061,0.711,0.084
	c0.375,0.037,0.753,0.061,1.13,0.086c0.204,0.013,0.406,0.033,0.611,0.043c0.584,0.029,1.171,0.045,1.759,0.045h417.765
	c0.588,0,1.175-0.016,1.759-0.045c0.206-0.01,0.409-0.03,0.614-0.043c0.376-0.025,0.752-0.049,1.126-0.086
	c0.24-0.024,0.478-0.056,0.717-0.085c0.337-0.04,0.673-0.079,1.008-0.129c0.243-0.036,0.483-0.079,0.725-0.12
	c0.331-0.056,0.661-0.112,0.989-0.177c0.23-0.046,0.457-0.097,0.686-0.147c0.34-0.075,0.679-0.151,1.016-0.235
	c0.207-0.052,0.413-0.108,0.618-0.164c0.359-0.097,0.716-0.197,1.071-0.305c0.177-0.054,0.353-0.11,0.529-0.167
	c0.384-0.123,0.765-0.252,1.144-0.388c0.143-0.051,0.285-0.104,0.428-0.157c0.412-0.154,0.82-0.315,1.226-0.484
	c0.106-0.044,0.211-0.088,0.316-0.134c0.44-0.189,0.876-0.386,1.309-0.593c0.068-0.033,0.137-0.065,0.205-0.098
	c0.466-0.226,0.926-0.462,1.382-0.709c0.035-0.019,0.07-0.037,0.104-0.056c0.484-0.264,0.962-0.539,1.434-0.825
	c0.007-0.005,0.015-0.009,0.023-0.013c2.07-1.259,4.028-2.729,5.832-4.415c0.102-0.096,0.194-0.2,0.29-0.301
	c6.771-6.477,11.001-15.59,11.001-25.677V201.59C500.435,191.918,496.547,183.14,490.259,176.724z M440.815,180.811h24.067
	c0.705,0,1.401,0.037,2.088,0.106c0.153,0.015,0.303,0.048,0.455,0.066c0.538,0.066,1.075,0.138,1.6,0.245
	c0.12,0.024,0.235,0.061,0.354,0.087c0.556,0.123,1.109,0.257,1.648,0.425c0.067,0.021,0.132,0.049,0.199,0.07
	c0.503,0.162,0.996,0.345,1.482,0.543l-31.893,28.076V180.811z M85.958,223.434V24.364c0-5.289,4.302-9.592,9.591-9.592h320.902
	c5.289,0,9.591,4.303,9.591,9.592v199.069l0,0L266.574,363.812c-0.001,0.001,0.001-0.001,0,0l0,0l0,0
	c-0.527,0.464-1.084,0.872-1.653,1.255c-5.948,3.996-13.992,3.589-19.494-1.255L85.958,223.434L85.958,223.434z M40.746,181.82
	c0.077-0.025,0.152-0.057,0.23-0.081c0.534-0.165,1.081-0.298,1.632-0.421c0.123-0.027,0.243-0.065,0.367-0.09
	c0.524-0.106,1.059-0.178,1.596-0.244c0.153-0.019,0.304-0.051,0.458-0.067c0.687-0.069,1.383-0.106,2.088-0.106h24.068v29.619
	L39.29,182.353C39.768,182.159,40.252,181.979,40.746,181.82z M28.921,486.462c-1.643-2.973-2.583-6.385-2.583-10.015V201.59
	c0-3.262,0.777-6.339,2.122-9.089l170.088,149.727l0,0L28.921,486.462z M471.292,496.205c-0.215,0.07-0.433,0.131-0.65,0.193
	c-0.395,0.114-0.794,0.218-1.198,0.309c-0.233,0.052-0.466,0.103-0.701,0.147c-0.422,0.08-0.85,0.142-1.281,0.196
	c-0.211,0.026-0.421,0.059-0.634,0.079c-0.641,0.06-1.289,0.099-1.946,0.099H47.117c-0.657,0-1.305-0.039-1.946-0.099
	c-0.211-0.02-0.42-0.052-0.63-0.078c-0.433-0.054-0.863-0.117-1.288-0.197c-0.231-0.044-0.461-0.093-0.69-0.145
	c-0.411-0.092-0.818-0.198-1.219-0.314c-0.208-0.06-0.418-0.119-0.624-0.185c-0.108-0.035-0.211-0.08-0.317-0.116l169.351-144.001
	l25.912,22.81v-0.001c0.725,0.638,1.472,1.236,2.24,1.794c5.374,3.908,11.734,5.861,18.095,5.862c3.635,0,7.269-0.638,10.72-1.914
	s6.717-3.19,9.616-5.741l25.911-22.81L471.6,496.094C471.495,496.128,471.396,496.171,471.292,496.205z M485.662,476.447
	c0,3.63-0.941,7.042-2.583,10.015L313.452,342.228L483.54,192.501l0,0c1.345,2.75,2.122,5.827,2.122,9.089L485.662,476.447
	L485.662,476.447z"/>
<path d="M253.309,144.912c0.865,0.339,1.778,0.508,2.691,0.508c0.913,0,1.826-0.169,2.692-0.508
	c2.527-0.989,61.887-24.731,61.887-69.447c0-21.711-17.663-39.375-39.374-39.375c-9.361,0-18.2,3.25-25.205,9.11
	c-7.005-5.86-15.844-9.11-25.205-9.11c-21.711,0-39.374,17.664-39.374,39.375C191.421,120.181,250.781,143.923,253.309,144.912z
	 M230.795,50.863c7.618,0,14.685,3.447,19.388,9.457c1.4,1.789,3.545,2.834,5.817,2.834c2.272,0,4.416-1.045,5.817-2.834
	c4.704-6.01,11.77-9.457,19.388-9.457c13.565,0,24.601,11.036,24.601,24.602c0,30.037-39.1,49.709-49.815,54.534
	c-4.599-2.061-14.404-6.846-24.184-14.109c-16.996-12.621-25.614-26.223-25.614-40.425C206.193,61.899,217.23,50.863,230.795,50.863
	z"/>
<g>
</g>
<g>
</g>
<g>
</g>
<g>
</g>
<g>
</g>
<g>
</g>
<g>
</g>
<g>
</g>
<g>
</g>
<g>
</g>
<g>
</g>
<g>
</g>
<g>
</g>
<g>
</g>
<g>
</g>
</svg>
